<mxfile host="app.diagrams.net" modified="2023-08-13T19:48:10.361Z" agent="Mozilla/5.0 (Macintosh; Intel Mac OS X 10_15_7) AppleWebKit/537.36 (KHTML, like Gecko) Chrome/115.0.0.0 Safari/537.36" etag="IYPYyQu86M4NGZRoY1cY" version="21.6.8" type="github">
  <diagram name="Page-1" id="58veKRzf7vGz37UtOcN2">
    <mxGraphModel dx="628" dy="398" grid="1" gridSize="10" guides="1" tooltips="1" connect="1" arrows="1" fold="1" page="1" pageScale="1" pageWidth="1169" pageHeight="827" math="0" shadow="0">
      <root>
        <mxCell id="0" />
        <mxCell id="1" value="AWS Cloud" style="locked=1;" parent="0" />
        <mxCell id="L80jwn8dBEY7ELQae99a-1" value="&lt;font style=&quot;font-size: 10px;&quot;&gt;AWS Cloud&lt;/font&gt;" style="sketch=0;outlineConnect=0;gradientColor=none;html=1;whiteSpace=wrap;fontSize=12;fontStyle=0;shape=mxgraph.aws4.group;grIcon=mxgraph.aws4.group_aws_cloud;strokeColor=#000000;fillColor=none;verticalAlign=top;align=left;spacingLeft=30;fontColor=#000000;dashed=0;container=0;movable=1;resizable=1;rotatable=1;deletable=1;editable=1;locked=0;connectable=1;" parent="1" vertex="1">
          <mxGeometry x="100" y="40" width="1020" height="400" as="geometry" />
        </mxCell>
        <mxCell id="qOvYk_Z4T4gCf6_uSdhR-17" value="API Gateway" style="locked=1;" parent="0" />
        <mxCell id="qOvYk_Z4T4gCf6_uSdhR-18" value="&lt;font size=&quot;1&quot; style=&quot;&quot;&gt;&lt;b style=&quot;font-size: 7px;&quot;&gt;API Gateway&lt;/b&gt;&lt;/font&gt;" style="sketch=0;points=[[0,0,0],[0.25,0,0],[0.5,0,0],[0.75,0,0],[1,0,0],[0,1,0],[0.25,1,0],[0.5,1,0],[0.75,1,0],[1,1,0],[0,0.25,0],[0,0.5,0],[0,0.75,0],[1,0.25,0],[1,0.5,0],[1,0.75,0]];outlineConnect=0;fontColor=#232F3E;gradientColor=#945DF2;gradientDirection=north;fillColor=#5A30B5;strokeColor=#ffffff;dashed=0;verticalLabelPosition=bottom;verticalAlign=top;align=center;html=1;fontSize=12;fontStyle=0;aspect=fixed;shape=mxgraph.aws4.resourceIcon;resIcon=mxgraph.aws4.api_gateway;spacing=-2;movable=1;resizable=1;rotatable=1;deletable=1;editable=1;locked=0;connectable=1;" vertex="1" parent="qOvYk_Z4T4gCf6_uSdhR-17">
          <mxGeometry x="120" y="140" width="40" height="40" as="geometry" />
        </mxCell>
        <mxCell id="5H0AT0FrbuaI5WeVpc6l-1" value="Endpoints" style="locked=1;" parent="0" />
        <mxCell id="qOvYk_Z4T4gCf6_uSdhR-23" style="edgeStyle=orthogonalEdgeStyle;orthogonalLoop=1;jettySize=auto;html=1;entryX=0.5;entryY=0;entryDx=0;entryDy=0;entryPerimeter=0;startArrow=classic;startFill=1;strokeWidth=0.5;endSize=2;startSize=2;jumpStyle=none;jumpSize=2;shadow=0;rounded=1;endArrow=none;endFill=0;" edge="1" parent="5H0AT0FrbuaI5WeVpc6l-1" source="qOvYk_Z4T4gCf6_uSdhR-14" target="qOvYk_Z4T4gCf6_uSdhR-18">
          <mxGeometry relative="1" as="geometry" />
        </mxCell>
        <mxCell id="qOvYk_Z4T4gCf6_uSdhR-14" value="&lt;font style=&quot;font-size: 7px;&quot;&gt;&lt;b&gt;Endpoint&lt;br&gt;&lt;/b&gt;/import-source&lt;/font&gt;" style="sketch=0;outlineConnect=0;fontColor=#232F3E;gradientColor=none;fillColor=#B0084D;strokeColor=none;dashed=0;verticalLabelPosition=bottom;verticalAlign=top;align=center;html=1;fontSize=12;fontStyle=0;aspect=fixed;pointerEvents=1;shape=mxgraph.aws4.endpoint;spacing=-2;movable=0;resizable=0;rotatable=0;deletable=0;editable=0;locked=1;connectable=0;" vertex="1" parent="5H0AT0FrbuaI5WeVpc6l-1">
          <mxGeometry x="210" y="90" width="20" height="20" as="geometry" />
        </mxCell>
        <mxCell id="qOvYk_Z4T4gCf6_uSdhR-24" style="edgeStyle=orthogonalEdgeStyle;rounded=1;orthogonalLoop=1;jettySize=auto;html=1;entryX=1;entryY=0.5;entryDx=0;entryDy=0;entryPerimeter=0;startArrow=classic;startFill=1;endSize=2;startSize=2;jumpSize=2;strokeWidth=0.5;endArrow=none;endFill=0;" edge="1" parent="5H0AT0FrbuaI5WeVpc6l-1" source="qOvYk_Z4T4gCf6_uSdhR-15" target="qOvYk_Z4T4gCf6_uSdhR-18">
          <mxGeometry relative="1" as="geometry" />
        </mxCell>
        <mxCell id="qOvYk_Z4T4gCf6_uSdhR-15" value="&lt;font style=&quot;font-size: 7px;&quot;&gt;&lt;b&gt;Endpoint&lt;br&gt;&lt;/b&gt;/sync-source&lt;/font&gt;" style="sketch=0;outlineConnect=0;fontColor=#232F3E;gradientColor=none;fillColor=#B0084D;strokeColor=none;dashed=0;verticalLabelPosition=bottom;verticalAlign=top;align=center;html=1;fontSize=12;fontStyle=0;aspect=fixed;pointerEvents=1;shape=mxgraph.aws4.endpoint;spacing=-2;movable=0;resizable=0;rotatable=0;deletable=0;editable=0;locked=1;connectable=0;" vertex="1" parent="5H0AT0FrbuaI5WeVpc6l-1">
          <mxGeometry x="210" y="150" width="20" height="20" as="geometry" />
        </mxCell>
        <mxCell id="qOvYk_Z4T4gCf6_uSdhR-26" style="edgeStyle=orthogonalEdgeStyle;rounded=1;orthogonalLoop=1;jettySize=auto;html=1;entryX=0.5;entryY=1;entryDx=0;entryDy=0;entryPerimeter=0;startArrow=classic;startFill=1;endArrow=none;endFill=0;endSize=2;startSize=2;jumpSize=2;strokeWidth=0.5;" edge="1" parent="5H0AT0FrbuaI5WeVpc6l-1" source="qOvYk_Z4T4gCf6_uSdhR-16" target="qOvYk_Z4T4gCf6_uSdhR-18">
          <mxGeometry relative="1" as="geometry" />
        </mxCell>
        <mxCell id="qOvYk_Z4T4gCf6_uSdhR-16" value="&lt;font style=&quot;font-size: 7px;&quot;&gt;&lt;b&gt;Endpoint&lt;br&gt;&lt;/b&gt;/publish-source&lt;/font&gt;" style="sketch=0;outlineConnect=0;fontColor=#232F3E;gradientColor=none;fillColor=#B0084D;strokeColor=none;dashed=0;verticalLabelPosition=bottom;verticalAlign=top;align=center;html=1;fontSize=12;fontStyle=0;aspect=fixed;pointerEvents=1;shape=mxgraph.aws4.endpoint;spacing=-2;movable=0;resizable=0;rotatable=0;deletable=0;editable=0;locked=1;connectable=0;" vertex="1" parent="5H0AT0FrbuaI5WeVpc6l-1">
          <mxGeometry x="210" y="210" width="20" height="20" as="geometry" />
        </mxCell>
        <mxCell id="qOvYk_Z4T4gCf6_uSdhR-27" value="StepFunction" style="locked=1;" parent="0" />
        <mxCell id="qOvYk_Z4T4gCf6_uSdhR-30" style="edgeStyle=orthogonalEdgeStyle;orthogonalLoop=1;jettySize=auto;html=1;entryX=0.5;entryY=0;entryDx=0;entryDy=0;entryPerimeter=0;startArrow=classic;startFill=1;strokeWidth=0.5;endSize=2;startSize=2;jumpStyle=none;jumpSize=2;shadow=0;rounded=1;endArrow=none;endFill=0;movable=0;resizable=0;rotatable=0;deletable=0;editable=0;locked=1;connectable=0;" edge="1" parent="qOvYk_Z4T4gCf6_uSdhR-27">
          <mxGeometry relative="1" as="geometry">
            <mxPoint x="220" y="100" as="sourcePoint" />
          </mxGeometry>
        </mxCell>
        <mxCell id="qOvYk_Z4T4gCf6_uSdhR-32" style="edgeStyle=orthogonalEdgeStyle;rounded=1;orthogonalLoop=1;jettySize=auto;html=1;entryX=1;entryY=0.5;entryDx=0;entryDy=0;entryPerimeter=0;startArrow=classic;startFill=1;endSize=2;startSize=2;jumpSize=2;strokeWidth=0.5;endArrow=none;endFill=0;movable=0;resizable=0;rotatable=0;deletable=0;editable=0;locked=1;connectable=0;" edge="1" parent="qOvYk_Z4T4gCf6_uSdhR-27">
          <mxGeometry relative="1" as="geometry">
            <mxPoint x="220" y="160" as="sourcePoint" />
          </mxGeometry>
        </mxCell>
        <mxCell id="qOvYk_Z4T4gCf6_uSdhR-34" style="edgeStyle=orthogonalEdgeStyle;rounded=1;orthogonalLoop=1;jettySize=auto;html=1;entryX=0.5;entryY=1;entryDx=0;entryDy=0;entryPerimeter=0;startArrow=classic;startFill=1;endArrow=none;endFill=0;endSize=2;startSize=2;jumpSize=2;strokeWidth=0.5;movable=0;resizable=0;rotatable=0;deletable=0;editable=0;locked=1;connectable=0;" edge="1" parent="qOvYk_Z4T4gCf6_uSdhR-27">
          <mxGeometry relative="1" as="geometry">
            <mxPoint x="220" y="220" as="sourcePoint" />
          </mxGeometry>
        </mxCell>
        <mxCell id="qOvYk_Z4T4gCf6_uSdhR-61" style="edgeStyle=orthogonalEdgeStyle;rounded=1;orthogonalLoop=1;jettySize=auto;html=1;strokeWidth=0.5;endSize=2;startSize=2;jumpSize=2;startArrow=classic;startFill=1;" edge="1" parent="qOvYk_Z4T4gCf6_uSdhR-27" source="qOvYk_Z4T4gCf6_uSdhR-36">
          <mxGeometry relative="1" as="geometry">
            <mxPoint x="230" y="100" as="targetPoint" />
          </mxGeometry>
        </mxCell>
        <mxCell id="qOvYk_Z4T4gCf6_uSdhR-36" value="&lt;font style=&quot;font-size: 6px;&quot;&gt;Step Function&lt;/font&gt;" style="points=[[0,0],[0.25,0],[0.5,0],[0.75,0],[1,0],[1,0.25],[1,0.5],[1,0.75],[1,1],[0.75,1],[0.5,1],[0.25,1],[0,1],[0,0.75],[0,0.5],[0,0.25]];outlineConnect=0;gradientColor=none;html=1;whiteSpace=wrap;fontSize=12;fontStyle=0;container=1;pointerEvents=0;collapsible=0;recursiveResize=0;shape=mxgraph.aws4.group;grIcon=mxgraph.aws4.group_aws_step_functions_workflow;strokeColor=#CD2264;fillColor=#FFF0F2;verticalAlign=top;align=left;spacingLeft=30;fontColor=#CD2264;dashed=0;strokeWidth=0.5;" vertex="1" parent="qOvYk_Z4T4gCf6_uSdhR-27">
          <mxGeometry x="280" y="60" width="90" height="130" as="geometry" />
        </mxCell>
        <mxCell id="qOvYk_Z4T4gCf6_uSdhR-66" value="" style="shape=image;html=1;verticalAlign=top;verticalLabelPosition=bottom;labelBackgroundColor=#ffffff;imageAspect=0;aspect=fixed;image=https://cdn0.iconfinder.com/data/icons/phosphor-fill-vol-3/256/number-circle-one-fill-128.png" vertex="1" parent="qOvYk_Z4T4gCf6_uSdhR-36">
          <mxGeometry x="72" y="70" width="8" height="8" as="geometry" />
        </mxCell>
        <mxCell id="qOvYk_Z4T4gCf6_uSdhR-38" value="Lambdas" style="locked=1;" parent="0" />
        <mxCell id="qOvYk_Z4T4gCf6_uSdhR-39" style="edgeStyle=orthogonalEdgeStyle;orthogonalLoop=1;jettySize=auto;html=1;entryX=0.5;entryY=0;entryDx=0;entryDy=0;entryPerimeter=0;startArrow=classic;startFill=1;strokeWidth=0.5;endSize=2;startSize=2;jumpStyle=none;jumpSize=2;shadow=0;rounded=1;endArrow=none;endFill=0;movable=0;resizable=0;rotatable=0;deletable=0;editable=0;locked=1;connectable=0;" edge="1" parent="qOvYk_Z4T4gCf6_uSdhR-38">
          <mxGeometry relative="1" as="geometry">
            <mxPoint x="220" y="100" as="sourcePoint" />
          </mxGeometry>
        </mxCell>
        <mxCell id="qOvYk_Z4T4gCf6_uSdhR-40" style="edgeStyle=orthogonalEdgeStyle;rounded=1;orthogonalLoop=1;jettySize=auto;html=1;entryX=1;entryY=0.5;entryDx=0;entryDy=0;entryPerimeter=0;startArrow=classic;startFill=1;endSize=2;startSize=2;jumpSize=2;strokeWidth=0.5;endArrow=none;endFill=0;movable=0;resizable=0;rotatable=0;deletable=0;editable=0;locked=1;connectable=0;" edge="1" parent="qOvYk_Z4T4gCf6_uSdhR-38">
          <mxGeometry relative="1" as="geometry">
            <mxPoint x="220" y="160" as="sourcePoint" />
          </mxGeometry>
        </mxCell>
        <mxCell id="qOvYk_Z4T4gCf6_uSdhR-41" style="edgeStyle=orthogonalEdgeStyle;rounded=1;orthogonalLoop=1;jettySize=auto;html=1;entryX=0.5;entryY=1;entryDx=0;entryDy=0;entryPerimeter=0;startArrow=classic;startFill=1;endArrow=none;endFill=0;endSize=2;startSize=2;jumpSize=2;strokeWidth=0.5;movable=0;resizable=0;rotatable=0;deletable=0;editable=0;locked=1;connectable=0;" edge="1" parent="qOvYk_Z4T4gCf6_uSdhR-38">
          <mxGeometry relative="1" as="geometry">
            <mxPoint x="220" y="220" as="sourcePoint" />
          </mxGeometry>
        </mxCell>
        <mxCell id="qOvYk_Z4T4gCf6_uSdhR-46" value="ad-create" style="shape=image;verticalLabelPosition=bottom;verticalAlign=top;imageAspect=0;aspect=fixed;image=data:image/svg+xml,PD94bWwgdmVyc2lvbj0iMS4wIiBlbmNvZGluZz0iVVRGLTgiPz4KPHN2ZyB3aWR0aD0iNjRweCIgaGVpZ2h0PSI2NHB4IiB2aWV3Qm94PSIwIDAgNjQgNjQiIHZlcnNpb249IjEuMSIgeG1sbnM9Imh0dHA6Ly93d3cudzMub3JnLzIwMDAvc3ZnIiB4bWxuczp4bGluaz0iaHR0cDovL3d3dy53My5vcmcvMTk5OS94bGluayI+CiAgICA8dGl0bGU+SWNvbi1BcmNoaXRlY3R1cmUvNDgvQXJjaF9BV1MtTGFtYmRhXzQ4PC90aXRsZT4KICAgIDxnIGlkPSJJY29uLUFyY2hpdGVjdHVyZS80OC9BcmNoX0FXUy1MYW1iZGFfNDgiIHN0cm9rZT0ibm9uZSIgc3Ryb2tlLXdpZHRoPSIxIiBmaWxsPSJub25lIiBmaWxsLXJ1bGU9ImV2ZW5vZGQiPgogICAgICAgIDxnIGlkPSJJY29uLUFyY2hpdGVjdHVyZS1CRy80OC9Db21wdXRlIiBmaWxsPSIjRUQ3MTAwIj4KICAgICAgICAgICAgPHJlY3QgaWQ9IlJlY3RhbmdsZSIgeD0iMCIgeT0iMCIgd2lkdGg9IjY0IiBoZWlnaHQ9IjY0Ij48L3JlY3Q+CiAgICAgICAgPC9nPgogICAgICAgIDxwYXRoIGQ9Ik0yMi42Nzk0MDk0LDUyIEwxMy41NzQwNzAxLDUyIEwyMy44Mzc2MTg5LDMwLjQxIEwyOC4zOTk3NDk0LDM5Ljg2MSBMMjIuNjc5NDA5NCw1MiBaIE0yNC43MjY5NDA2LDI3LjY2NyBDMjQuNTYwNjI4NSwyNy4zMjEgMjQuMjEyMDcwMiwyNy4xMDMgMjMuODMwNjQ3OCwyNy4xMDMgTDIzLjgyNzY2MDEsMjcuMTAzIEMyMy40NDUyNDE4LDI3LjEwNCAyMy4wOTY2ODM1LDI3LjMyNSAyMi45MzIzNjMyLDI3LjY3MiBMMTEuMDk3MzE0Myw1Mi41NjkgQzEwLjk0OTkyMzksNTIuODc5IDEwLjk3MDgzNzQsNTMuMjQzIDExLjE1NDA3OTUsNTMuNTM0IEMxMS4zMzUzMjk4LDUzLjgyNCAxMS42NTQwMTE3LDU0IDExLjk5NTU5ODksNTQgTDIzLjMwOTgwMiw1NCBDMjMuNjk1MjA4LDU0IDI0LjA0NDc2MjIsNTMuNzc3IDI0LjIxMDA3ODQsNTMuNDI4IEwzMC40MDQ0NTc3LDQwLjI4NCBDMzAuNTMyOTI2NCw0MC4wMSAzMC41MzE5MzA1LDM5LjY5MiAzMC4zOTk0NzgzLDM5LjQyIEwyNC43MjY5NDA2LDI3LjY2NyBaIE01MS4wMDgyMzgyLDUyIEw0MS45ODU1NTcsNTIgTDI2Ljk1NDcyNjIsMTkuNTc4IEMyNi43OTE0MDE3LDE5LjIyNiAyNi40Mzg4NTk5LDE5IDI2LjA1MjQ1ODEsMTkgTDIwLjEyNzk2MjUsMTkgTDIwLjEzNDkzMzcsMTIgTDMxLjgxNDYyNTEsMTIgTDQ2Ljc3NDc0ODMsNDQuNDIgQzQ2LjkzODA3MjgsNDQuNzc0IDQ3LjI5MDYxNDcsNDUgNDcuNjc5MDA4Miw0NSBMNTEuMDA4MjM4Miw0NSBMNTEuMDA4MjM4Miw1MiBaIE01Mi4wMDQxMTkxLDQzIEw0OC4zMTQzODAzLDQzIEwzMy4zNTQyNTcsMTAuNTggQzMzLjE5MDkzMjYsMTAuMjI2IDMyLjgzODM5MDcsMTAgMzIuNDUwOTkzLDEwIEwxOS4xNDAwNDg2LDEwIEMxOC41OTEzMTgyLDEwIDE4LjE0NTE2MzYsMTAuNDQ3IDE4LjE0NDE2NzcsMTAuOTk5IEwxOC4xMzYyMDA2LDE5Ljk5OSBDMTguMTM2MjAwNiwyMC4yNjUgMTguMjQwNzY4MSwyMC41MTkgMTguNDI2OTk3OSwyMC43MDcgQzE4LjYxNDIyMzUsMjAuODk1IDE4Ljg2NzE3NzIsMjEgMTkuMTMxMDg1NywyMSBMMjUuNDE3MDg2MSwyMSBMNDAuNDQ3OTE2OCw1My40MjIgQzQwLjYxMTI0MTMsNTMuNzc0IDQwLjk2Mjc4NzMsNTQgNDEuMzUwMTg1LDU0IEw1Mi4wMDQxMTkxLDU0IEM1Mi41NTQ4NDEyLDU0IDUzLDUzLjU1MiA1Myw1MyBMNTMsNDQgQzUzLDQzLjQ0OCA1Mi41NTQ4NDEyLDQzIDUyLjAwNDExOTEsNDMgTDUyLjAwNDExOTEsNDMgWiIgaWQ9IkFXUy1MYW1iZGFfSWNvbl80OF9TcXVpZCIgZmlsbD0iI0ZGRkZGRiI+PC9wYXRoPgogICAgPC9nPgo8L3N2Zz4=;points=[[0,0],[1,0],[1,1],[0,1],[0,0.167],[0.167,0],[1,0.167],[0.167,1],[0,0.333],[0.333,0],[1,0.333],[0.333,1],[0,0.5],[0.5,0],[1,0.5],[0.5,1],[0,0.667],[0.667,0],[1,0.667],[0.667,1],[0,0.833],[0.833,0],[1,0.833],[0.833,1]];fontStyle=0;fontSize=6;" vertex="1" parent="qOvYk_Z4T4gCf6_uSdhR-38">
          <mxGeometry x="550" y="150" width="20" height="20" as="geometry" />
        </mxCell>
        <mxCell id="qOvYk_Z4T4gCf6_uSdhR-47" value="publish-source" style="shape=image;verticalLabelPosition=bottom;verticalAlign=top;imageAspect=0;aspect=fixed;image=data:image/svg+xml,PD94bWwgdmVyc2lvbj0iMS4wIiBlbmNvZGluZz0iVVRGLTgiPz4KPHN2ZyB3aWR0aD0iNjRweCIgaGVpZ2h0PSI2NHB4IiB2aWV3Qm94PSIwIDAgNjQgNjQiIHZlcnNpb249IjEuMSIgeG1sbnM9Imh0dHA6Ly93d3cudzMub3JnLzIwMDAvc3ZnIiB4bWxuczp4bGluaz0iaHR0cDovL3d3dy53My5vcmcvMTk5OS94bGluayI+CiAgICA8dGl0bGU+SWNvbi1BcmNoaXRlY3R1cmUvNDgvQXJjaF9BV1MtTGFtYmRhXzQ4PC90aXRsZT4KICAgIDxnIGlkPSJJY29uLUFyY2hpdGVjdHVyZS80OC9BcmNoX0FXUy1MYW1iZGFfNDgiIHN0cm9rZT0ibm9uZSIgc3Ryb2tlLXdpZHRoPSIxIiBmaWxsPSJub25lIiBmaWxsLXJ1bGU9ImV2ZW5vZGQiPgogICAgICAgIDxnIGlkPSJJY29uLUFyY2hpdGVjdHVyZS1CRy80OC9Db21wdXRlIiBmaWxsPSIjRUQ3MTAwIj4KICAgICAgICAgICAgPHJlY3QgaWQ9IlJlY3RhbmdsZSIgeD0iMCIgeT0iMCIgd2lkdGg9IjY0IiBoZWlnaHQ9IjY0Ij48L3JlY3Q+CiAgICAgICAgPC9nPgogICAgICAgIDxwYXRoIGQ9Ik0yMi42Nzk0MDk0LDUyIEwxMy41NzQwNzAxLDUyIEwyMy44Mzc2MTg5LDMwLjQxIEwyOC4zOTk3NDk0LDM5Ljg2MSBMMjIuNjc5NDA5NCw1MiBaIE0yNC43MjY5NDA2LDI3LjY2NyBDMjQuNTYwNjI4NSwyNy4zMjEgMjQuMjEyMDcwMiwyNy4xMDMgMjMuODMwNjQ3OCwyNy4xMDMgTDIzLjgyNzY2MDEsMjcuMTAzIEMyMy40NDUyNDE4LDI3LjEwNCAyMy4wOTY2ODM1LDI3LjMyNSAyMi45MzIzNjMyLDI3LjY3MiBMMTEuMDk3MzE0Myw1Mi41NjkgQzEwLjk0OTkyMzksNTIuODc5IDEwLjk3MDgzNzQsNTMuMjQzIDExLjE1NDA3OTUsNTMuNTM0IEMxMS4zMzUzMjk4LDUzLjgyNCAxMS42NTQwMTE3LDU0IDExLjk5NTU5ODksNTQgTDIzLjMwOTgwMiw1NCBDMjMuNjk1MjA4LDU0IDI0LjA0NDc2MjIsNTMuNzc3IDI0LjIxMDA3ODQsNTMuNDI4IEwzMC40MDQ0NTc3LDQwLjI4NCBDMzAuNTMyOTI2NCw0MC4wMSAzMC41MzE5MzA1LDM5LjY5MiAzMC4zOTk0NzgzLDM5LjQyIEwyNC43MjY5NDA2LDI3LjY2NyBaIE01MS4wMDgyMzgyLDUyIEw0MS45ODU1NTcsNTIgTDI2Ljk1NDcyNjIsMTkuNTc4IEMyNi43OTE0MDE3LDE5LjIyNiAyNi40Mzg4NTk5LDE5IDI2LjA1MjQ1ODEsMTkgTDIwLjEyNzk2MjUsMTkgTDIwLjEzNDkzMzcsMTIgTDMxLjgxNDYyNTEsMTIgTDQ2Ljc3NDc0ODMsNDQuNDIgQzQ2LjkzODA3MjgsNDQuNzc0IDQ3LjI5MDYxNDcsNDUgNDcuNjc5MDA4Miw0NSBMNTEuMDA4MjM4Miw0NSBMNTEuMDA4MjM4Miw1MiBaIE01Mi4wMDQxMTkxLDQzIEw0OC4zMTQzODAzLDQzIEwzMy4zNTQyNTcsMTAuNTggQzMzLjE5MDkzMjYsMTAuMjI2IDMyLjgzODM5MDcsMTAgMzIuNDUwOTkzLDEwIEwxOS4xNDAwNDg2LDEwIEMxOC41OTEzMTgyLDEwIDE4LjE0NTE2MzYsMTAuNDQ3IDE4LjE0NDE2NzcsMTAuOTk5IEwxOC4xMzYyMDA2LDE5Ljk5OSBDMTguMTM2MjAwNiwyMC4yNjUgMTguMjQwNzY4MSwyMC41MTkgMTguNDI2OTk3OSwyMC43MDcgQzE4LjYxNDIyMzUsMjAuODk1IDE4Ljg2NzE3NzIsMjEgMTkuMTMxMDg1NywyMSBMMjUuNDE3MDg2MSwyMSBMNDAuNDQ3OTE2OCw1My40MjIgQzQwLjYxMTI0MTMsNTMuNzc0IDQwLjk2Mjc4NzMsNTQgNDEuMzUwMTg1LDU0IEw1Mi4wMDQxMTkxLDU0IEM1Mi41NTQ4NDEyLDU0IDUzLDUzLjU1MiA1Myw1MyBMNTMsNDQgQzUzLDQzLjQ0OCA1Mi41NTQ4NDEyLDQzIDUyLjAwNDExOTEsNDMgTDUyLjAwNDExOTEsNDMgWiIgaWQ9IkFXUy1MYW1iZGFfSWNvbl80OF9TcXVpZCIgZmlsbD0iI0ZGRkZGRiI+PC9wYXRoPgogICAgPC9nPgo8L3N2Zz4=;points=[[0,0],[1,0],[1,1],[0,1],[0,0.167],[0.167,0],[1,0.167],[0.167,1],[0,0.333],[0.333,0],[1,0.333],[0.333,1],[0,0.5],[0.5,0],[1,0.5],[0.5,1],[0,0.667],[0.667,0],[1,0.667],[0.667,1],[0,0.833],[0.833,0],[1,0.833],[0.833,1]];fontSize=6;fontStyle=0" vertex="1" parent="qOvYk_Z4T4gCf6_uSdhR-38">
          <mxGeometry x="585" y="150" width="20" height="20" as="geometry" />
        </mxCell>
        <mxCell id="qOvYk_Z4T4gCf6_uSdhR-62" style="edgeStyle=orthogonalEdgeStyle;rounded=1;orthogonalLoop=1;jettySize=auto;html=1;strokeWidth=0.5;endSize=2;startSize=2;jumpSize=2;startArrow=classic;startFill=1;" edge="1" parent="qOvYk_Z4T4gCf6_uSdhR-38">
          <mxGeometry relative="1" as="geometry">
            <mxPoint x="230" y="160" as="targetPoint" />
            <mxPoint x="310" y="160" as="sourcePoint" />
          </mxGeometry>
        </mxCell>
        <mxCell id="qOvYk_Z4T4gCf6_uSdhR-63" value="sync-source" style="shape=image;verticalLabelPosition=bottom;verticalAlign=top;imageAspect=0;aspect=fixed;image=data:image/svg+xml,PD94bWwgdmVyc2lvbj0iMS4wIiBlbmNvZGluZz0iVVRGLTgiPz4KPHN2ZyB3aWR0aD0iNjRweCIgaGVpZ2h0PSI2NHB4IiB2aWV3Qm94PSIwIDAgNjQgNjQiIHZlcnNpb249IjEuMSIgeG1sbnM9Imh0dHA6Ly93d3cudzMub3JnLzIwMDAvc3ZnIiB4bWxuczp4bGluaz0iaHR0cDovL3d3dy53My5vcmcvMTk5OS94bGluayI+CiAgICA8dGl0bGU+SWNvbi1BcmNoaXRlY3R1cmUvNDgvQXJjaF9BV1MtTGFtYmRhXzQ4PC90aXRsZT4KICAgIDxnIGlkPSJJY29uLUFyY2hpdGVjdHVyZS80OC9BcmNoX0FXUy1MYW1iZGFfNDgiIHN0cm9rZT0ibm9uZSIgc3Ryb2tlLXdpZHRoPSIxIiBmaWxsPSJub25lIiBmaWxsLXJ1bGU9ImV2ZW5vZGQiPgogICAgICAgIDxnIGlkPSJJY29uLUFyY2hpdGVjdHVyZS1CRy80OC9Db21wdXRlIiBmaWxsPSIjRUQ3MTAwIj4KICAgICAgICAgICAgPHJlY3QgaWQ9IlJlY3RhbmdsZSIgeD0iMCIgeT0iMCIgd2lkdGg9IjY0IiBoZWlnaHQ9IjY0Ij48L3JlY3Q+CiAgICAgICAgPC9nPgogICAgICAgIDxwYXRoIGQ9Ik0yMi42Nzk0MDk0LDUyIEwxMy41NzQwNzAxLDUyIEwyMy44Mzc2MTg5LDMwLjQxIEwyOC4zOTk3NDk0LDM5Ljg2MSBMMjIuNjc5NDA5NCw1MiBaIE0yNC43MjY5NDA2LDI3LjY2NyBDMjQuNTYwNjI4NSwyNy4zMjEgMjQuMjEyMDcwMiwyNy4xMDMgMjMuODMwNjQ3OCwyNy4xMDMgTDIzLjgyNzY2MDEsMjcuMTAzIEMyMy40NDUyNDE4LDI3LjEwNCAyMy4wOTY2ODM1LDI3LjMyNSAyMi45MzIzNjMyLDI3LjY3MiBMMTEuMDk3MzE0Myw1Mi41NjkgQzEwLjk0OTkyMzksNTIuODc5IDEwLjk3MDgzNzQsNTMuMjQzIDExLjE1NDA3OTUsNTMuNTM0IEMxMS4zMzUzMjk4LDUzLjgyNCAxMS42NTQwMTE3LDU0IDExLjk5NTU5ODksNTQgTDIzLjMwOTgwMiw1NCBDMjMuNjk1MjA4LDU0IDI0LjA0NDc2MjIsNTMuNzc3IDI0LjIxMDA3ODQsNTMuNDI4IEwzMC40MDQ0NTc3LDQwLjI4NCBDMzAuNTMyOTI2NCw0MC4wMSAzMC41MzE5MzA1LDM5LjY5MiAzMC4zOTk0NzgzLDM5LjQyIEwyNC43MjY5NDA2LDI3LjY2NyBaIE01MS4wMDgyMzgyLDUyIEw0MS45ODU1NTcsNTIgTDI2Ljk1NDcyNjIsMTkuNTc4IEMyNi43OTE0MDE3LDE5LjIyNiAyNi40Mzg4NTk5LDE5IDI2LjA1MjQ1ODEsMTkgTDIwLjEyNzk2MjUsMTkgTDIwLjEzNDkzMzcsMTIgTDMxLjgxNDYyNTEsMTIgTDQ2Ljc3NDc0ODMsNDQuNDIgQzQ2LjkzODA3MjgsNDQuNzc0IDQ3LjI5MDYxNDcsNDUgNDcuNjc5MDA4Miw0NSBMNTEuMDA4MjM4Miw0NSBMNTEuMDA4MjM4Miw1MiBaIE01Mi4wMDQxMTkxLDQzIEw0OC4zMTQzODAzLDQzIEwzMy4zNTQyNTcsMTAuNTggQzMzLjE5MDkzMjYsMTAuMjI2IDMyLjgzODM5MDcsMTAgMzIuNDUwOTkzLDEwIEwxOS4xNDAwNDg2LDEwIEMxOC41OTEzMTgyLDEwIDE4LjE0NTE2MzYsMTAuNDQ3IDE4LjE0NDE2NzcsMTAuOTk5IEwxOC4xMzYyMDA2LDE5Ljk5OSBDMTguMTM2MjAwNiwyMC4yNjUgMTguMjQwNzY4MSwyMC41MTkgMTguNDI2OTk3OSwyMC43MDcgQzE4LjYxNDIyMzUsMjAuODk1IDE4Ljg2NzE3NzIsMjEgMTkuMTMxMDg1NywyMSBMMjUuNDE3MDg2MSwyMSBMNDAuNDQ3OTE2OCw1My40MjIgQzQwLjYxMTI0MTMsNTMuNzc0IDQwLjk2Mjc4NzMsNTQgNDEuMzUwMTg1LDU0IEw1Mi4wMDQxMTkxLDU0IEM1Mi41NTQ4NDEyLDU0IDUzLDUzLjU1MiA1Myw1MyBMNTMsNDQgQzUzLDQzLjQ0OCA1Mi41NTQ4NDEyLDQzIDUyLjAwNDExOTEsNDMgTDUyLjAwNDExOTEsNDMgWiIgaWQ9IkFXUy1MYW1iZGFfSWNvbl80OF9TcXVpZCIgZmlsbD0iI0ZGRkZGRiI+PC9wYXRoPgogICAgPC9nPgo8L3N2Zz4=;points=[[0,0],[1,0],[1,1],[0,1],[0,0.167],[0.167,0],[1,0.167],[0.167,1],[0,0.333],[0.333,0],[1,0.333],[0.333,1],[0,0.5],[0.5,0],[1,0.5],[0.5,1],[0,0.667],[0.667,0],[1,0.667],[0.667,1],[0,0.833],[0.833,0],[1,0.833],[0.833,1]];fontStyle=0;fontSize=6;movable=1;resizable=1;rotatable=1;deletable=1;editable=1;locked=0;connectable=1;" vertex="1" parent="qOvYk_Z4T4gCf6_uSdhR-38">
          <mxGeometry x="310" y="150" width="20" height="20" as="geometry" />
        </mxCell>
        <mxCell id="qOvYk_Z4T4gCf6_uSdhR-64" value="import-source" style="shape=image;verticalLabelPosition=bottom;verticalAlign=top;imageAspect=0;aspect=fixed;image=data:image/svg+xml,PD94bWwgdmVyc2lvbj0iMS4wIiBlbmNvZGluZz0iVVRGLTgiPz4KPHN2ZyB3aWR0aD0iNjRweCIgaGVpZ2h0PSI2NHB4IiB2aWV3Qm94PSIwIDAgNjQgNjQiIHZlcnNpb249IjEuMSIgeG1sbnM9Imh0dHA6Ly93d3cudzMub3JnLzIwMDAvc3ZnIiB4bWxuczp4bGluaz0iaHR0cDovL3d3dy53My5vcmcvMTk5OS94bGluayI+CiAgICA8dGl0bGU+SWNvbi1BcmNoaXRlY3R1cmUvNDgvQXJjaF9BV1MtTGFtYmRhXzQ4PC90aXRsZT4KICAgIDxnIGlkPSJJY29uLUFyY2hpdGVjdHVyZS80OC9BcmNoX0FXUy1MYW1iZGFfNDgiIHN0cm9rZT0ibm9uZSIgc3Ryb2tlLXdpZHRoPSIxIiBmaWxsPSJub25lIiBmaWxsLXJ1bGU9ImV2ZW5vZGQiPgogICAgICAgIDxnIGlkPSJJY29uLUFyY2hpdGVjdHVyZS1CRy80OC9Db21wdXRlIiBmaWxsPSIjRUQ3MTAwIj4KICAgICAgICAgICAgPHJlY3QgaWQ9IlJlY3RhbmdsZSIgeD0iMCIgeT0iMCIgd2lkdGg9IjY0IiBoZWlnaHQ9IjY0Ij48L3JlY3Q+CiAgICAgICAgPC9nPgogICAgICAgIDxwYXRoIGQ9Ik0yMi42Nzk0MDk0LDUyIEwxMy41NzQwNzAxLDUyIEwyMy44Mzc2MTg5LDMwLjQxIEwyOC4zOTk3NDk0LDM5Ljg2MSBMMjIuNjc5NDA5NCw1MiBaIE0yNC43MjY5NDA2LDI3LjY2NyBDMjQuNTYwNjI4NSwyNy4zMjEgMjQuMjEyMDcwMiwyNy4xMDMgMjMuODMwNjQ3OCwyNy4xMDMgTDIzLjgyNzY2MDEsMjcuMTAzIEMyMy40NDUyNDE4LDI3LjEwNCAyMy4wOTY2ODM1LDI3LjMyNSAyMi45MzIzNjMyLDI3LjY3MiBMMTEuMDk3MzE0Myw1Mi41NjkgQzEwLjk0OTkyMzksNTIuODc5IDEwLjk3MDgzNzQsNTMuMjQzIDExLjE1NDA3OTUsNTMuNTM0IEMxMS4zMzUzMjk4LDUzLjgyNCAxMS42NTQwMTE3LDU0IDExLjk5NTU5ODksNTQgTDIzLjMwOTgwMiw1NCBDMjMuNjk1MjA4LDU0IDI0LjA0NDc2MjIsNTMuNzc3IDI0LjIxMDA3ODQsNTMuNDI4IEwzMC40MDQ0NTc3LDQwLjI4NCBDMzAuNTMyOTI2NCw0MC4wMSAzMC41MzE5MzA1LDM5LjY5MiAzMC4zOTk0NzgzLDM5LjQyIEwyNC43MjY5NDA2LDI3LjY2NyBaIE01MS4wMDgyMzgyLDUyIEw0MS45ODU1NTcsNTIgTDI2Ljk1NDcyNjIsMTkuNTc4IEMyNi43OTE0MDE3LDE5LjIyNiAyNi40Mzg4NTk5LDE5IDI2LjA1MjQ1ODEsMTkgTDIwLjEyNzk2MjUsMTkgTDIwLjEzNDkzMzcsMTIgTDMxLjgxNDYyNTEsMTIgTDQ2Ljc3NDc0ODMsNDQuNDIgQzQ2LjkzODA3MjgsNDQuNzc0IDQ3LjI5MDYxNDcsNDUgNDcuNjc5MDA4Miw0NSBMNTEuMDA4MjM4Miw0NSBMNTEuMDA4MjM4Miw1MiBaIE01Mi4wMDQxMTkxLDQzIEw0OC4zMTQzODAzLDQzIEwzMy4zNTQyNTcsMTAuNTggQzMzLjE5MDkzMjYsMTAuMjI2IDMyLjgzODM5MDcsMTAgMzIuNDUwOTkzLDEwIEwxOS4xNDAwNDg2LDEwIEMxOC41OTEzMTgyLDEwIDE4LjE0NTE2MzYsMTAuNDQ3IDE4LjE0NDE2NzcsMTAuOTk5IEwxOC4xMzYyMDA2LDE5Ljk5OSBDMTguMTM2MjAwNiwyMC4yNjUgMTguMjQwNzY4MSwyMC41MTkgMTguNDI2OTk3OSwyMC43MDcgQzE4LjYxNDIyMzUsMjAuODk1IDE4Ljg2NzE3NzIsMjEgMTkuMTMxMDg1NywyMSBMMjUuNDE3MDg2MSwyMSBMNDAuNDQ3OTE2OCw1My40MjIgQzQwLjYxMTI0MTMsNTMuNzc0IDQwLjk2Mjc4NzMsNTQgNDEuMzUwMTg1LDU0IEw1Mi4wMDQxMTkxLDU0IEM1Mi41NTQ4NDEyLDU0IDUzLDUzLjU1MiA1Myw1MyBMNTMsNDQgQzUzLDQzLjQ0OCA1Mi41NTQ4NDEyLDQzIDUyLjAwNDExOTEsNDMgTDUyLjAwNDExOTEsNDMgWiIgaWQ9IkFXUy1MYW1iZGFfSWNvbl80OF9TcXVpZCIgZmlsbD0iI0ZGRkZGRiI+PC9wYXRoPgogICAgPC9nPgo8L3N2Zz4=;points=[[0,0],[1,0],[1,1],[0,1],[0,0.167],[0.167,0],[1,0.167],[0.167,1],[0,0.333],[0.333,0],[1,0.333],[0.333,1],[0,0.5],[0.5,0],[1,0.5],[0.5,1],[0,0.667],[0.667,0],[1,0.667],[0.667,1],[0,0.833],[0.833,0],[1,0.833],[0.833,1]];fontSize=6;fontStyle=0;strokeWidth=2;" vertex="1" parent="qOvYk_Z4T4gCf6_uSdhR-38">
          <mxGeometry x="310" y="100" width="20" height="20" as="geometry" />
        </mxCell>
        <mxCell id="qOvYk_Z4T4gCf6_uSdhR-65" style="edgeStyle=orthogonalEdgeStyle;rounded=1;orthogonalLoop=1;jettySize=auto;html=1;exitX=1;exitY=0.5;exitDx=0;exitDy=0;entryX=1;entryY=0.5;entryDx=0;entryDy=0;strokeWidth=0.5;endSize=2;startSize=2;jumpSize=2;" edge="1" parent="qOvYk_Z4T4gCf6_uSdhR-38" source="qOvYk_Z4T4gCf6_uSdhR-64" target="qOvYk_Z4T4gCf6_uSdhR-63">
          <mxGeometry relative="1" as="geometry" />
        </mxCell>
        <mxCell id="qOvYk_Z4T4gCf6_uSdhR-67" value="EventBridge" style="" parent="0" />
        <mxCell id="qOvYk_Z4T4gCf6_uSdhR-68" style="edgeStyle=orthogonalEdgeStyle;orthogonalLoop=1;jettySize=auto;html=1;entryX=0.5;entryY=0;entryDx=0;entryDy=0;entryPerimeter=0;startArrow=classic;startFill=1;strokeWidth=0.5;endSize=2;startSize=2;jumpStyle=none;jumpSize=2;shadow=0;rounded=1;endArrow=none;endFill=0;movable=0;resizable=0;rotatable=0;deletable=0;editable=0;locked=1;connectable=0;" edge="1" parent="qOvYk_Z4T4gCf6_uSdhR-67">
          <mxGeometry relative="1" as="geometry">
            <mxPoint x="220" y="100" as="sourcePoint" />
          </mxGeometry>
        </mxCell>
        <mxCell id="qOvYk_Z4T4gCf6_uSdhR-69" style="edgeStyle=orthogonalEdgeStyle;rounded=1;orthogonalLoop=1;jettySize=auto;html=1;entryX=1;entryY=0.5;entryDx=0;entryDy=0;entryPerimeter=0;startArrow=classic;startFill=1;endSize=2;startSize=2;jumpSize=2;strokeWidth=0.5;endArrow=none;endFill=0;movable=0;resizable=0;rotatable=0;deletable=0;editable=0;locked=1;connectable=0;" edge="1" parent="qOvYk_Z4T4gCf6_uSdhR-67">
          <mxGeometry relative="1" as="geometry">
            <mxPoint x="220" y="160" as="sourcePoint" />
          </mxGeometry>
        </mxCell>
        <mxCell id="qOvYk_Z4T4gCf6_uSdhR-70" style="edgeStyle=orthogonalEdgeStyle;rounded=1;orthogonalLoop=1;jettySize=auto;html=1;entryX=0.5;entryY=1;entryDx=0;entryDy=0;entryPerimeter=0;startArrow=classic;startFill=1;endArrow=none;endFill=0;endSize=2;startSize=2;jumpSize=2;strokeWidth=0.5;movable=0;resizable=0;rotatable=0;deletable=0;editable=0;locked=1;connectable=0;" edge="1" parent="qOvYk_Z4T4gCf6_uSdhR-67">
          <mxGeometry relative="1" as="geometry">
            <mxPoint x="220" y="220" as="sourcePoint" />
          </mxGeometry>
        </mxCell>
        <mxCell id="qOvYk_Z4T4gCf6_uSdhR-71" value="ad-create" style="shape=image;verticalLabelPosition=bottom;verticalAlign=top;imageAspect=0;aspect=fixed;image=data:image/svg+xml,PD94bWwgdmVyc2lvbj0iMS4wIiBlbmNvZGluZz0iVVRGLTgiPz4KPHN2ZyB3aWR0aD0iNjRweCIgaGVpZ2h0PSI2NHB4IiB2aWV3Qm94PSIwIDAgNjQgNjQiIHZlcnNpb249IjEuMSIgeG1sbnM9Imh0dHA6Ly93d3cudzMub3JnLzIwMDAvc3ZnIiB4bWxuczp4bGluaz0iaHR0cDovL3d3dy53My5vcmcvMTk5OS94bGluayI+CiAgICA8dGl0bGU+SWNvbi1BcmNoaXRlY3R1cmUvNDgvQXJjaF9BV1MtTGFtYmRhXzQ4PC90aXRsZT4KICAgIDxnIGlkPSJJY29uLUFyY2hpdGVjdHVyZS80OC9BcmNoX0FXUy1MYW1iZGFfNDgiIHN0cm9rZT0ibm9uZSIgc3Ryb2tlLXdpZHRoPSIxIiBmaWxsPSJub25lIiBmaWxsLXJ1bGU9ImV2ZW5vZGQiPgogICAgICAgIDxnIGlkPSJJY29uLUFyY2hpdGVjdHVyZS1CRy80OC9Db21wdXRlIiBmaWxsPSIjRUQ3MTAwIj4KICAgICAgICAgICAgPHJlY3QgaWQ9IlJlY3RhbmdsZSIgeD0iMCIgeT0iMCIgd2lkdGg9IjY0IiBoZWlnaHQ9IjY0Ij48L3JlY3Q+CiAgICAgICAgPC9nPgogICAgICAgIDxwYXRoIGQ9Ik0yMi42Nzk0MDk0LDUyIEwxMy41NzQwNzAxLDUyIEwyMy44Mzc2MTg5LDMwLjQxIEwyOC4zOTk3NDk0LDM5Ljg2MSBMMjIuNjc5NDA5NCw1MiBaIE0yNC43MjY5NDA2LDI3LjY2NyBDMjQuNTYwNjI4NSwyNy4zMjEgMjQuMjEyMDcwMiwyNy4xMDMgMjMuODMwNjQ3OCwyNy4xMDMgTDIzLjgyNzY2MDEsMjcuMTAzIEMyMy40NDUyNDE4LDI3LjEwNCAyMy4wOTY2ODM1LDI3LjMyNSAyMi45MzIzNjMyLDI3LjY3MiBMMTEuMDk3MzE0Myw1Mi41NjkgQzEwLjk0OTkyMzksNTIuODc5IDEwLjk3MDgzNzQsNTMuMjQzIDExLjE1NDA3OTUsNTMuNTM0IEMxMS4zMzUzMjk4LDUzLjgyNCAxMS42NTQwMTE3LDU0IDExLjk5NTU5ODksNTQgTDIzLjMwOTgwMiw1NCBDMjMuNjk1MjA4LDU0IDI0LjA0NDc2MjIsNTMuNzc3IDI0LjIxMDA3ODQsNTMuNDI4IEwzMC40MDQ0NTc3LDQwLjI4NCBDMzAuNTMyOTI2NCw0MC4wMSAzMC41MzE5MzA1LDM5LjY5MiAzMC4zOTk0NzgzLDM5LjQyIEwyNC43MjY5NDA2LDI3LjY2NyBaIE01MS4wMDgyMzgyLDUyIEw0MS45ODU1NTcsNTIgTDI2Ljk1NDcyNjIsMTkuNTc4IEMyNi43OTE0MDE3LDE5LjIyNiAyNi40Mzg4NTk5LDE5IDI2LjA1MjQ1ODEsMTkgTDIwLjEyNzk2MjUsMTkgTDIwLjEzNDkzMzcsMTIgTDMxLjgxNDYyNTEsMTIgTDQ2Ljc3NDc0ODMsNDQuNDIgQzQ2LjkzODA3MjgsNDQuNzc0IDQ3LjI5MDYxNDcsNDUgNDcuNjc5MDA4Miw0NSBMNTEuMDA4MjM4Miw0NSBMNTEuMDA4MjM4Miw1MiBaIE01Mi4wMDQxMTkxLDQzIEw0OC4zMTQzODAzLDQzIEwzMy4zNTQyNTcsMTAuNTggQzMzLjE5MDkzMjYsMTAuMjI2IDMyLjgzODM5MDcsMTAgMzIuNDUwOTkzLDEwIEwxOS4xNDAwNDg2LDEwIEMxOC41OTEzMTgyLDEwIDE4LjE0NTE2MzYsMTAuNDQ3IDE4LjE0NDE2NzcsMTAuOTk5IEwxOC4xMzYyMDA2LDE5Ljk5OSBDMTguMTM2MjAwNiwyMC4yNjUgMTguMjQwNzY4MSwyMC41MTkgMTguNDI2OTk3OSwyMC43MDcgQzE4LjYxNDIyMzUsMjAuODk1IDE4Ljg2NzE3NzIsMjEgMTkuMTMxMDg1NywyMSBMMjUuNDE3MDg2MSwyMSBMNDAuNDQ3OTE2OCw1My40MjIgQzQwLjYxMTI0MTMsNTMuNzc0IDQwLjk2Mjc4NzMsNTQgNDEuMzUwMTg1LDU0IEw1Mi4wMDQxMTkxLDU0IEM1Mi41NTQ4NDEyLDU0IDUzLDUzLjU1MiA1Myw1MyBMNTMsNDQgQzUzLDQzLjQ0OCA1Mi41NTQ4NDEyLDQzIDUyLjAwNDExOTEsNDMgTDUyLjAwNDExOTEsNDMgWiIgaWQ9IkFXUy1MYW1iZGFfSWNvbl80OF9TcXVpZCIgZmlsbD0iI0ZGRkZGRiI+PC9wYXRoPgogICAgPC9nPgo8L3N2Zz4=;points=[[0,0],[1,0],[1,1],[0,1],[0,0.167],[0.167,0],[1,0.167],[0.167,1],[0,0.333],[0.333,0],[1,0.333],[0.333,1],[0,0.5],[0.5,0],[1,0.5],[0.5,1],[0,0.667],[0.667,0],[1,0.667],[0.667,1],[0,0.833],[0.833,0],[1,0.833],[0.833,1]];fontStyle=0;fontSize=6;" vertex="1" parent="qOvYk_Z4T4gCf6_uSdhR-67">
          <mxGeometry x="550" y="150" width="20" height="20" as="geometry" />
        </mxCell>
        <mxCell id="qOvYk_Z4T4gCf6_uSdhR-72" value="publish-source" style="shape=image;verticalLabelPosition=bottom;verticalAlign=top;imageAspect=0;aspect=fixed;image=data:image/svg+xml,PD94bWwgdmVyc2lvbj0iMS4wIiBlbmNvZGluZz0iVVRGLTgiPz4KPHN2ZyB3aWR0aD0iNjRweCIgaGVpZ2h0PSI2NHB4IiB2aWV3Qm94PSIwIDAgNjQgNjQiIHZlcnNpb249IjEuMSIgeG1sbnM9Imh0dHA6Ly93d3cudzMub3JnLzIwMDAvc3ZnIiB4bWxuczp4bGluaz0iaHR0cDovL3d3dy53My5vcmcvMTk5OS94bGluayI+CiAgICA8dGl0bGU+SWNvbi1BcmNoaXRlY3R1cmUvNDgvQXJjaF9BV1MtTGFtYmRhXzQ4PC90aXRsZT4KICAgIDxnIGlkPSJJY29uLUFyY2hpdGVjdHVyZS80OC9BcmNoX0FXUy1MYW1iZGFfNDgiIHN0cm9rZT0ibm9uZSIgc3Ryb2tlLXdpZHRoPSIxIiBmaWxsPSJub25lIiBmaWxsLXJ1bGU9ImV2ZW5vZGQiPgogICAgICAgIDxnIGlkPSJJY29uLUFyY2hpdGVjdHVyZS1CRy80OC9Db21wdXRlIiBmaWxsPSIjRUQ3MTAwIj4KICAgICAgICAgICAgPHJlY3QgaWQ9IlJlY3RhbmdsZSIgeD0iMCIgeT0iMCIgd2lkdGg9IjY0IiBoZWlnaHQ9IjY0Ij48L3JlY3Q+CiAgICAgICAgPC9nPgogICAgICAgIDxwYXRoIGQ9Ik0yMi42Nzk0MDk0LDUyIEwxMy41NzQwNzAxLDUyIEwyMy44Mzc2MTg5LDMwLjQxIEwyOC4zOTk3NDk0LDM5Ljg2MSBMMjIuNjc5NDA5NCw1MiBaIE0yNC43MjY5NDA2LDI3LjY2NyBDMjQuNTYwNjI4NSwyNy4zMjEgMjQuMjEyMDcwMiwyNy4xMDMgMjMuODMwNjQ3OCwyNy4xMDMgTDIzLjgyNzY2MDEsMjcuMTAzIEMyMy40NDUyNDE4LDI3LjEwNCAyMy4wOTY2ODM1LDI3LjMyNSAyMi45MzIzNjMyLDI3LjY3MiBMMTEuMDk3MzE0Myw1Mi41NjkgQzEwLjk0OTkyMzksNTIuODc5IDEwLjk3MDgzNzQsNTMuMjQzIDExLjE1NDA3OTUsNTMuNTM0IEMxMS4zMzUzMjk4LDUzLjgyNCAxMS42NTQwMTE3LDU0IDExLjk5NTU5ODksNTQgTDIzLjMwOTgwMiw1NCBDMjMuNjk1MjA4LDU0IDI0LjA0NDc2MjIsNTMuNzc3IDI0LjIxMDA3ODQsNTMuNDI4IEwzMC40MDQ0NTc3LDQwLjI4NCBDMzAuNTMyOTI2NCw0MC4wMSAzMC41MzE5MzA1LDM5LjY5MiAzMC4zOTk0NzgzLDM5LjQyIEwyNC43MjY5NDA2LDI3LjY2NyBaIE01MS4wMDgyMzgyLDUyIEw0MS45ODU1NTcsNTIgTDI2Ljk1NDcyNjIsMTkuNTc4IEMyNi43OTE0MDE3LDE5LjIyNiAyNi40Mzg4NTk5LDE5IDI2LjA1MjQ1ODEsMTkgTDIwLjEyNzk2MjUsMTkgTDIwLjEzNDkzMzcsMTIgTDMxLjgxNDYyNTEsMTIgTDQ2Ljc3NDc0ODMsNDQuNDIgQzQ2LjkzODA3MjgsNDQuNzc0IDQ3LjI5MDYxNDcsNDUgNDcuNjc5MDA4Miw0NSBMNTEuMDA4MjM4Miw0NSBMNTEuMDA4MjM4Miw1MiBaIE01Mi4wMDQxMTkxLDQzIEw0OC4zMTQzODAzLDQzIEwzMy4zNTQyNTcsMTAuNTggQzMzLjE5MDkzMjYsMTAuMjI2IDMyLjgzODM5MDcsMTAgMzIuNDUwOTkzLDEwIEwxOS4xNDAwNDg2LDEwIEMxOC41OTEzMTgyLDEwIDE4LjE0NTE2MzYsMTAuNDQ3IDE4LjE0NDE2NzcsMTAuOTk5IEwxOC4xMzYyMDA2LDE5Ljk5OSBDMTguMTM2MjAwNiwyMC4yNjUgMTguMjQwNzY4MSwyMC41MTkgMTguNDI2OTk3OSwyMC43MDcgQzE4LjYxNDIyMzUsMjAuODk1IDE4Ljg2NzE3NzIsMjEgMTkuMTMxMDg1NywyMSBMMjUuNDE3MDg2MSwyMSBMNDAuNDQ3OTE2OCw1My40MjIgQzQwLjYxMTI0MTMsNTMuNzc0IDQwLjk2Mjc4NzMsNTQgNDEuMzUwMTg1LDU0IEw1Mi4wMDQxMTkxLDU0IEM1Mi41NTQ4NDEyLDU0IDUzLDUzLjU1MiA1Myw1MyBMNTMsNDQgQzUzLDQzLjQ0OCA1Mi41NTQ4NDEyLDQzIDUyLjAwNDExOTEsNDMgTDUyLjAwNDExOTEsNDMgWiIgaWQ9IkFXUy1MYW1iZGFfSWNvbl80OF9TcXVpZCIgZmlsbD0iI0ZGRkZGRiI+PC9wYXRoPgogICAgPC9nPgo8L3N2Zz4=;points=[[0,0],[1,0],[1,1],[0,1],[0,0.167],[0.167,0],[1,0.167],[0.167,1],[0,0.333],[0.333,0],[1,0.333],[0.333,1],[0,0.5],[0.5,0],[1,0.5],[0.5,1],[0,0.667],[0.667,0],[1,0.667],[0.667,1],[0,0.833],[0.833,0],[1,0.833],[0.833,1]];fontSize=6;fontStyle=0" vertex="1" parent="qOvYk_Z4T4gCf6_uSdhR-67">
          <mxGeometry x="585" y="150" width="20" height="20" as="geometry" />
        </mxCell>
        <mxCell id="qOvYk_Z4T4gCf6_uSdhR-73" style="edgeStyle=orthogonalEdgeStyle;rounded=1;orthogonalLoop=1;jettySize=auto;html=1;strokeWidth=0.5;endSize=2;startSize=2;jumpSize=2;startArrow=classic;startFill=1;" edge="1" parent="qOvYk_Z4T4gCf6_uSdhR-67">
          <mxGeometry relative="1" as="geometry">
            <mxPoint x="230" y="160" as="targetPoint" />
            <mxPoint x="310" y="160" as="sourcePoint" />
          </mxGeometry>
        </mxCell>
        <mxCell id="qOvYk_Z4T4gCf6_uSdhR-74" value="sync-source" style="shape=image;verticalLabelPosition=bottom;verticalAlign=top;imageAspect=0;aspect=fixed;image=data:image/svg+xml,PD94bWwgdmVyc2lvbj0iMS4wIiBlbmNvZGluZz0iVVRGLTgiPz4KPHN2ZyB3aWR0aD0iNjRweCIgaGVpZ2h0PSI2NHB4IiB2aWV3Qm94PSIwIDAgNjQgNjQiIHZlcnNpb249IjEuMSIgeG1sbnM9Imh0dHA6Ly93d3cudzMub3JnLzIwMDAvc3ZnIiB4bWxuczp4bGluaz0iaHR0cDovL3d3dy53My5vcmcvMTk5OS94bGluayI+CiAgICA8dGl0bGU+SWNvbi1BcmNoaXRlY3R1cmUvNDgvQXJjaF9BV1MtTGFtYmRhXzQ4PC90aXRsZT4KICAgIDxnIGlkPSJJY29uLUFyY2hpdGVjdHVyZS80OC9BcmNoX0FXUy1MYW1iZGFfNDgiIHN0cm9rZT0ibm9uZSIgc3Ryb2tlLXdpZHRoPSIxIiBmaWxsPSJub25lIiBmaWxsLXJ1bGU9ImV2ZW5vZGQiPgogICAgICAgIDxnIGlkPSJJY29uLUFyY2hpdGVjdHVyZS1CRy80OC9Db21wdXRlIiBmaWxsPSIjRUQ3MTAwIj4KICAgICAgICAgICAgPHJlY3QgaWQ9IlJlY3RhbmdsZSIgeD0iMCIgeT0iMCIgd2lkdGg9IjY0IiBoZWlnaHQ9IjY0Ij48L3JlY3Q+CiAgICAgICAgPC9nPgogICAgICAgIDxwYXRoIGQ9Ik0yMi42Nzk0MDk0LDUyIEwxMy41NzQwNzAxLDUyIEwyMy44Mzc2MTg5LDMwLjQxIEwyOC4zOTk3NDk0LDM5Ljg2MSBMMjIuNjc5NDA5NCw1MiBaIE0yNC43MjY5NDA2LDI3LjY2NyBDMjQuNTYwNjI4NSwyNy4zMjEgMjQuMjEyMDcwMiwyNy4xMDMgMjMuODMwNjQ3OCwyNy4xMDMgTDIzLjgyNzY2MDEsMjcuMTAzIEMyMy40NDUyNDE4LDI3LjEwNCAyMy4wOTY2ODM1LDI3LjMyNSAyMi45MzIzNjMyLDI3LjY3MiBMMTEuMDk3MzE0Myw1Mi41NjkgQzEwLjk0OTkyMzksNTIuODc5IDEwLjk3MDgzNzQsNTMuMjQzIDExLjE1NDA3OTUsNTMuNTM0IEMxMS4zMzUzMjk4LDUzLjgyNCAxMS42NTQwMTE3LDU0IDExLjk5NTU5ODksNTQgTDIzLjMwOTgwMiw1NCBDMjMuNjk1MjA4LDU0IDI0LjA0NDc2MjIsNTMuNzc3IDI0LjIxMDA3ODQsNTMuNDI4IEwzMC40MDQ0NTc3LDQwLjI4NCBDMzAuNTMyOTI2NCw0MC4wMSAzMC41MzE5MzA1LDM5LjY5MiAzMC4zOTk0NzgzLDM5LjQyIEwyNC43MjY5NDA2LDI3LjY2NyBaIE01MS4wMDgyMzgyLDUyIEw0MS45ODU1NTcsNTIgTDI2Ljk1NDcyNjIsMTkuNTc4IEMyNi43OTE0MDE3LDE5LjIyNiAyNi40Mzg4NTk5LDE5IDI2LjA1MjQ1ODEsMTkgTDIwLjEyNzk2MjUsMTkgTDIwLjEzNDkzMzcsMTIgTDMxLjgxNDYyNTEsMTIgTDQ2Ljc3NDc0ODMsNDQuNDIgQzQ2LjkzODA3MjgsNDQuNzc0IDQ3LjI5MDYxNDcsNDUgNDcuNjc5MDA4Miw0NSBMNTEuMDA4MjM4Miw0NSBMNTEuMDA4MjM4Miw1MiBaIE01Mi4wMDQxMTkxLDQzIEw0OC4zMTQzODAzLDQzIEwzMy4zNTQyNTcsMTAuNTggQzMzLjE5MDkzMjYsMTAuMjI2IDMyLjgzODM5MDcsMTAgMzIuNDUwOTkzLDEwIEwxOS4xNDAwNDg2LDEwIEMxOC41OTEzMTgyLDEwIDE4LjE0NTE2MzYsMTAuNDQ3IDE4LjE0NDE2NzcsMTAuOTk5IEwxOC4xMzYyMDA2LDE5Ljk5OSBDMTguMTM2MjAwNiwyMC4yNjUgMTguMjQwNzY4MSwyMC41MTkgMTguNDI2OTk3OSwyMC43MDcgQzE4LjYxNDIyMzUsMjAuODk1IDE4Ljg2NzE3NzIsMjEgMTkuMTMxMDg1NywyMSBMMjUuNDE3MDg2MSwyMSBMNDAuNDQ3OTE2OCw1My40MjIgQzQwLjYxMTI0MTMsNTMuNzc0IDQwLjk2Mjc4NzMsNTQgNDEuMzUwMTg1LDU0IEw1Mi4wMDQxMTkxLDU0IEM1Mi41NTQ4NDEyLDU0IDUzLDUzLjU1MiA1Myw1MyBMNTMsNDQgQzUzLDQzLjQ0OCA1Mi41NTQ4NDEyLDQzIDUyLjAwNDExOTEsNDMgTDUyLjAwNDExOTEsNDMgWiIgaWQ9IkFXUy1MYW1iZGFfSWNvbl80OF9TcXVpZCIgZmlsbD0iI0ZGRkZGRiI+PC9wYXRoPgogICAgPC9nPgo8L3N2Zz4=;points=[[0,0],[1,0],[1,1],[0,1],[0,0.167],[0.167,0],[1,0.167],[0.167,1],[0,0.333],[0.333,0],[1,0.333],[0.333,1],[0,0.5],[0.5,0],[1,0.5],[0.5,1],[0,0.667],[0.667,0],[1,0.667],[0.667,1],[0,0.833],[0.833,0],[1,0.833],[0.833,1]];fontStyle=0;fontSize=6;movable=1;resizable=1;rotatable=1;deletable=1;editable=1;locked=0;connectable=1;" vertex="1" parent="qOvYk_Z4T4gCf6_uSdhR-67">
          <mxGeometry x="310" y="150" width="20" height="20" as="geometry" />
        </mxCell>
        <mxCell id="qOvYk_Z4T4gCf6_uSdhR-75" value="import-source" style="shape=image;verticalLabelPosition=bottom;verticalAlign=top;imageAspect=0;aspect=fixed;image=data:image/svg+xml,PD94bWwgdmVyc2lvbj0iMS4wIiBlbmNvZGluZz0iVVRGLTgiPz4KPHN2ZyB3aWR0aD0iNjRweCIgaGVpZ2h0PSI2NHB4IiB2aWV3Qm94PSIwIDAgNjQgNjQiIHZlcnNpb249IjEuMSIgeG1sbnM9Imh0dHA6Ly93d3cudzMub3JnLzIwMDAvc3ZnIiB4bWxuczp4bGluaz0iaHR0cDovL3d3dy53My5vcmcvMTk5OS94bGluayI+CiAgICA8dGl0bGU+SWNvbi1BcmNoaXRlY3R1cmUvNDgvQXJjaF9BV1MtTGFtYmRhXzQ4PC90aXRsZT4KICAgIDxnIGlkPSJJY29uLUFyY2hpdGVjdHVyZS80OC9BcmNoX0FXUy1MYW1iZGFfNDgiIHN0cm9rZT0ibm9uZSIgc3Ryb2tlLXdpZHRoPSIxIiBmaWxsPSJub25lIiBmaWxsLXJ1bGU9ImV2ZW5vZGQiPgogICAgICAgIDxnIGlkPSJJY29uLUFyY2hpdGVjdHVyZS1CRy80OC9Db21wdXRlIiBmaWxsPSIjRUQ3MTAwIj4KICAgICAgICAgICAgPHJlY3QgaWQ9IlJlY3RhbmdsZSIgeD0iMCIgeT0iMCIgd2lkdGg9IjY0IiBoZWlnaHQ9IjY0Ij48L3JlY3Q+CiAgICAgICAgPC9nPgogICAgICAgIDxwYXRoIGQ9Ik0yMi42Nzk0MDk0LDUyIEwxMy41NzQwNzAxLDUyIEwyMy44Mzc2MTg5LDMwLjQxIEwyOC4zOTk3NDk0LDM5Ljg2MSBMMjIuNjc5NDA5NCw1MiBaIE0yNC43MjY5NDA2LDI3LjY2NyBDMjQuNTYwNjI4NSwyNy4zMjEgMjQuMjEyMDcwMiwyNy4xMDMgMjMuODMwNjQ3OCwyNy4xMDMgTDIzLjgyNzY2MDEsMjcuMTAzIEMyMy40NDUyNDE4LDI3LjEwNCAyMy4wOTY2ODM1LDI3LjMyNSAyMi45MzIzNjMyLDI3LjY3MiBMMTEuMDk3MzE0Myw1Mi41NjkgQzEwLjk0OTkyMzksNTIuODc5IDEwLjk3MDgzNzQsNTMuMjQzIDExLjE1NDA3OTUsNTMuNTM0IEMxMS4zMzUzMjk4LDUzLjgyNCAxMS42NTQwMTE3LDU0IDExLjk5NTU5ODksNTQgTDIzLjMwOTgwMiw1NCBDMjMuNjk1MjA4LDU0IDI0LjA0NDc2MjIsNTMuNzc3IDI0LjIxMDA3ODQsNTMuNDI4IEwzMC40MDQ0NTc3LDQwLjI4NCBDMzAuNTMyOTI2NCw0MC4wMSAzMC41MzE5MzA1LDM5LjY5MiAzMC4zOTk0NzgzLDM5LjQyIEwyNC43MjY5NDA2LDI3LjY2NyBaIE01MS4wMDgyMzgyLDUyIEw0MS45ODU1NTcsNTIgTDI2Ljk1NDcyNjIsMTkuNTc4IEMyNi43OTE0MDE3LDE5LjIyNiAyNi40Mzg4NTk5LDE5IDI2LjA1MjQ1ODEsMTkgTDIwLjEyNzk2MjUsMTkgTDIwLjEzNDkzMzcsMTIgTDMxLjgxNDYyNTEsMTIgTDQ2Ljc3NDc0ODMsNDQuNDIgQzQ2LjkzODA3MjgsNDQuNzc0IDQ3LjI5MDYxNDcsNDUgNDcuNjc5MDA4Miw0NSBMNTEuMDA4MjM4Miw0NSBMNTEuMDA4MjM4Miw1MiBaIE01Mi4wMDQxMTkxLDQzIEw0OC4zMTQzODAzLDQzIEwzMy4zNTQyNTcsMTAuNTggQzMzLjE5MDkzMjYsMTAuMjI2IDMyLjgzODM5MDcsMTAgMzIuNDUwOTkzLDEwIEwxOS4xNDAwNDg2LDEwIEMxOC41OTEzMTgyLDEwIDE4LjE0NTE2MzYsMTAuNDQ3IDE4LjE0NDE2NzcsMTAuOTk5IEwxOC4xMzYyMDA2LDE5Ljk5OSBDMTguMTM2MjAwNiwyMC4yNjUgMTguMjQwNzY4MSwyMC41MTkgMTguNDI2OTk3OSwyMC43MDcgQzE4LjYxNDIyMzUsMjAuODk1IDE4Ljg2NzE3NzIsMjEgMTkuMTMxMDg1NywyMSBMMjUuNDE3MDg2MSwyMSBMNDAuNDQ3OTE2OCw1My40MjIgQzQwLjYxMTI0MTMsNTMuNzc0IDQwLjk2Mjc4NzMsNTQgNDEuMzUwMTg1LDU0IEw1Mi4wMDQxMTkxLDU0IEM1Mi41NTQ4NDEyLDU0IDUzLDUzLjU1MiA1Myw1MyBMNTMsNDQgQzUzLDQzLjQ0OCA1Mi41NTQ4NDEyLDQzIDUyLjAwNDExOTEsNDMgTDUyLjAwNDExOTEsNDMgWiIgaWQ9IkFXUy1MYW1iZGFfSWNvbl80OF9TcXVpZCIgZmlsbD0iI0ZGRkZGRiI+PC9wYXRoPgogICAgPC9nPgo8L3N2Zz4=;points=[[0,0],[1,0],[1,1],[0,1],[0,0.167],[0.167,0],[1,0.167],[0.167,1],[0,0.333],[0.333,0],[1,0.333],[0.333,1],[0,0.5],[0.5,0],[1,0.5],[0.5,1],[0,0.667],[0.667,0],[1,0.667],[0.667,1],[0,0.833],[0.833,0],[1,0.833],[0.833,1]];fontSize=6;fontStyle=0;strokeWidth=2;" vertex="1" parent="qOvYk_Z4T4gCf6_uSdhR-67">
          <mxGeometry x="310" y="100" width="20" height="20" as="geometry" />
        </mxCell>
        <mxCell id="qOvYk_Z4T4gCf6_uSdhR-76" style="edgeStyle=orthogonalEdgeStyle;rounded=1;orthogonalLoop=1;jettySize=auto;html=1;exitX=1;exitY=0.5;exitDx=0;exitDy=0;entryX=1;entryY=0.5;entryDx=0;entryDy=0;strokeWidth=0.5;endSize=2;startSize=2;jumpSize=2;" edge="1" parent="qOvYk_Z4T4gCf6_uSdhR-67" source="qOvYk_Z4T4gCf6_uSdhR-75" target="qOvYk_Z4T4gCf6_uSdhR-74">
          <mxGeometry relative="1" as="geometry" />
        </mxCell>
        <mxCell id="qOvYk_Z4T4gCf6_uSdhR-77" value="&lt;b&gt;&lt;font style=&quot;font-size: 8px;&quot;&gt;Event Bridge&lt;/font&gt;&lt;/b&gt;" style="sketch=0;points=[[0,0,0],[0.25,0,0],[0.5,0,0],[0.75,0,0],[1,0,0],[0,1,0],[0.25,1,0],[0.5,1,0],[0.75,1,0],[1,1,0],[0,0.25,0],[0,0.5,0],[0,0.75,0],[1,0.25,0],[1,0.5,0],[1,0.75,0]];outlineConnect=0;fontColor=#232F3E;gradientColor=#FF4F8B;gradientDirection=north;fillColor=#BC1356;strokeColor=#ffffff;dashed=0;verticalLabelPosition=bottom;verticalAlign=top;align=center;html=1;fontSize=12;fontStyle=0;aspect=fixed;shape=mxgraph.aws4.resourceIcon;resIcon=mxgraph.aws4.eventbridge;" vertex="1" parent="qOvYk_Z4T4gCf6_uSdhR-67">
          <mxGeometry x="305" y="210" width="30" height="30" as="geometry" />
        </mxCell>
        <mxCell id="qOvYk_Z4T4gCf6_uSdhR-78" value="&lt;font style=&quot;font-size: 6px;&quot;&gt;publish-dynamic-ads-bus&lt;/font&gt;" style="sketch=0;outlineConnect=0;fontColor=#232F3E;gradientColor=none;fillColor=#B0084D;strokeColor=none;dashed=0;verticalLabelPosition=bottom;verticalAlign=top;align=center;html=1;fontSize=12;fontStyle=0;aspect=fixed;pointerEvents=1;shape=mxgraph.aws4.eventbridge_custom_event_bus_resource;" vertex="1" parent="qOvYk_Z4T4gCf6_uSdhR-67">
          <mxGeometry x="305" y="270" width="22.61" height="20" as="geometry" />
        </mxCell>
        <mxCell id="qOvYk_Z4T4gCf6_uSdhR-79" value="&lt;font style=&quot;font-size: 6px;&quot;&gt;publish event&lt;/font&gt;" style="sketch=0;outlineConnect=0;fontColor=#232F3E;gradientColor=none;fillColor=#B0084D;strokeColor=none;dashed=0;verticalLabelPosition=bottom;verticalAlign=top;align=center;html=1;fontSize=12;fontStyle=0;aspect=fixed;pointerEvents=1;shape=mxgraph.aws4.event;" vertex="1" parent="qOvYk_Z4T4gCf6_uSdhR-67">
          <mxGeometry x="305" y="320" width="20" height="20" as="geometry" />
        </mxCell>
      </root>
    </mxGraphModel>
  </diagram>
</mxfile>
